<?xml version="1.0" encoding="iso-8859-1"?>
<!-- Uploaded to: SVG Repo, www.svgrepo.com, Generator: SVG Repo Mixer Tools -->
<svg version="1.1" id="Layer_1" xmlns="http://www.w3.org/2000/svg" xmlns:xlink="http://www.w3.org/1999/xlink" 
	 viewBox="0 0 511.996 511.996" xml:space="preserve">
<rect x="120.996" style="fill:#998675;" width="270.995" height="128.003"/>
<path style="fill:#C1272D;" d="M200.17,127.491V72.616C200.17,36.929,225.07,8,255.997,8s55.828,28.929,55.828,64.616v54.876"/>
<circle style="fill:#FFFFFF;" cx="255.993" cy="63.999" r="32"/>
<path d="M320.252,111.691h-15.8V63.999c0-26.522-21.737-48.1-48.454-48.1s-48.454,21.577-48.454,48.1v47.691h-15.8V63.999
	c0-35.235,28.824-63.9,64.254-63.9s64.254,28.665,64.254,63.9V111.691z"/>
<path d="M255.997,24.1c-22.001,0-39.9,17.899-39.9,39.9s17.9,39.9,39.9,39.9s39.9-17.9,39.9-39.9S277.999,24.1,255.997,24.1z
	 M263.371,86.941V80.09h-15.8v6.485c-6.772-2.536-12.103-8.036-14.416-14.912h7.043v-15.8h-6.883
	c2.395-6.656,7.64-11.962,14.256-14.439v7.066h15.8v-7.431c7.111,2.291,12.789,7.8,15.309,14.805h-6.883v15.8h7.043
	C276.409,78.893,270.641,84.6,263.371,86.941z"/>
<rect x="247.566" y="55.859" width="16.854" height="15.8"/>
<rect x="23.997" y="160.004" style="fill:#998675;" width="464.001" height="24"/>
<rect x="7.998" y="128.003" style="fill:#C69C6D;" width="487.996" height="32"/>
<rect x="7.998" y="128.003" style="fill:#8C6239;" width="167.999" height="32"/>
<rect x="47.997" y="183.999" style="fill:#736357;" width="399.999" height="303.997"/>
<rect x="383.996" y="455.995" style="fill:#998675;" width="71.997" height="32"/>
<polygon style="fill:#C69C6D;" points="104.315,327.628 104.315,487.737 127.489,487.737 127.489,351.855 376.079,351.855 
	376.079,487.737 400.306,487.737 400.306,327.628 "/>
<g>
	<rect x="55.993" y="455.995" style="fill:#998675;" width="71.997" height="32"/>
	<rect x="47.997" y="183.999" style="fill:#998675;" width="408.005" height="32"/>
</g>
<polyline style="fill:#D1B08A;" points="247.571,327.628 104.315,327.628 104.315,487.737 127.489,487.737 127.489,351.855 
	231.77,351.855 "/>
<rect x="128.001" y="351.998" style="fill:#C7B299;" width="248.001" height="135.998"/>
<rect x="23.997" y="487.996" style="fill:#C69C6D;" width="456.922" height="24"/>
<rect x="23.997" y="487.996" style="fill:#8C6239;" width="145.794" height="24"/>
<path d="M511.898,167.9H0.097v-47.8h511.801V167.9z M15.898,152.1h480.2V135.9h-480.2V152.1z"/>
<path style="fill:#FF1D25;" d="M251.555,247.379l45.255,45.255l-11.314,11.314c-9.373,9.373-9.373,24.568,0,33.941l0,0
	c9.373,9.373,24.568,9.373,33.941,0l11.314-11.314l17.713-17.713c8.962-8.962,8.962-23.493,0-32.456l-17.713-17.713l-45.255-45.255
	L251.555,247.379z"/>
<g>
	<polygon style="fill:#FFFFFF;" points="251.555,247.379 287.998,208 303.997,232 271.998,264 	"/>
	<path style="fill:#FFFFFF;" d="M343.074,314.317c-2.077,1.677-4.671-2.717-6.666-4.712c-9.373-9.373-9.373-24.568,0-33.941
		c1.987-1.987,4.233-3.552,6.632-4.696C343.04,270.968,371.887,291.053,343.074,314.317z"/>
	<circle style="fill:#FFFFFF;" cx="295.999" cy="328.003" r="16"/>
</g>
<path style="fill:#FF1D25;" d="M123.555,247.379l45.255,45.255l-11.314,11.314c-9.373,9.373-9.373,24.568,0,33.941l0,0
	c9.373,9.373,24.568,9.373,33.941,0l11.314-11.314l17.713-17.713c8.962-8.962,8.962-23.493,0-32.456l-17.713-17.713l-45.255-45.255
	L123.555,247.379z"/>
<g>
	<polygon style="fill:#FFFFFF;" points="123.555,247.379 159.997,208 175.997,232 143.998,264 	"/>
	<path style="fill:#FFFFFF;" d="M215.074,314.317c-2.077,1.677-4.671-2.717-6.666-4.712c-9.373-9.373-9.373-24.568,0-33.941
		c1.986-1.987,4.233-3.552,6.632-4.696C215.04,270.968,243.887,291.053,215.074,314.317z"/>
	<circle style="fill:#FFFFFF;" cx="167.996" cy="328.003" r="16"/>
</g>
<rect x="207.539" y="344.477" width="64.254" height="15.8"/>
<rect x="224.393" y="320.25" width="40.027" height="15.8"/>
<rect x="111.684" y="0.036" width="15.8" height="111.655"/>
<rect x="384.502" y="0.036" width="15.8" height="111.655"/>
<path d="M487.734,191.746v-15.8H24.26v15.8h15.8v288.618H15.833v31.6h15.8v-15.8h440.301v15.8h15.8v-31.6h-24.227V191.746H487.734z
	 M330.822,315.192c0.023,0.023,0.05,0.044,0.073,0.067l-17.044,17.044c-3.041,3.041-7.084,4.716-11.385,4.716
	c-4.3,0-8.344-1.675-11.385-4.716c-3.041-3.041-4.716-7.084-4.716-11.385s1.675-8.344,4.716-11.385l16.9-16.9l-28.492-28.492
	l0.278,0.137l11.314-11.314l-11.172-11.172l-11.385,11.385l-5.799-5.799l22.769-22.769l45.399,45.399
	c-0.024,0.023-0.049,0.044-0.074,0.067C318.384,282.515,318.384,302.753,330.822,315.192z M202.822,315.192
	c0.023,0.023,0.049,0.044,0.073,0.067l-17.044,17.044c-3.041,3.041-7.084,4.716-11.385,4.716c-4.3,0-8.344-1.675-11.385-4.716
	s-4.715-7.084-4.715-11.385s1.675-8.344,4.715-11.385l16.9-16.9l-28.285-28.285l11.385-11.385l-11.172-11.172l-11.385,11.385
	l-5.799-5.799l22.769-22.769l45.399,45.399c-0.024,0.023-0.049,0.044-0.074,0.067C190.384,282.515,190.384,302.753,202.822,315.192z
	 M447.707,208.599h-15.8v15.8h15.8v223.31h-15.8v15.8h15.8v16.854H407.68V320.254h-55.828v15.8h40.027v144.309h-8.427V344.481
	h-55.828v15.8h40.027v120.082H135.915V360.282h8.427v-15.8h-24.227v135.882h-8.427V336.055h24.227v-15.8H95.888v160.109H55.861
	V463.51h15.8v-15.8h-15.8v-223.31h15.8v-15.8h-15.8v-16.854h95.855v16.301l-39.333,39.333l45.255,45.255l-5.728,5.728
	c-6.025,6.025-9.343,14.036-9.343,22.556s3.318,16.531,9.343,22.556c6.219,6.219,14.388,9.328,22.558,9.328
	c8.169,0,16.337-3.109,22.556-9.328l29.027-29.027c12.028-12.028,12.028-31.601,0-43.629l-58.535-58.535v-20.54h112.709v15.792
	l-39.842,39.843l45.255,45.255l-5.728,5.728c-6.025,6.025-9.343,14.036-9.343,22.556s3.318,16.531,9.343,22.556
	c6.219,6.219,14.388,9.328,22.556,9.328s16.337-3.109,22.556-9.328l29.027-29.027c5.827-5.827,9.036-13.575,9.036-21.815
	c0-8.24-3.208-15.988-9.036-21.814l-58.026-58.026v-21.048h151.682v16.854H447.707z M213.994,281.25
	c0.023-0.024,0.05-0.044,0.074-0.067l0.81,0.81c5.867,5.868,5.867,15.416,0,21.284l-0.81,0.811
	c-0.024-0.023-0.051-0.044-0.074-0.067C207.717,297.741,207.717,287.527,213.994,281.25z M341.994,281.25
	c0.024-0.024,0.049-0.044,0.074-0.067l0.81,0.81c2.843,2.843,4.407,6.622,4.407,10.642s-1.565,7.799-4.407,10.642l-0.81,0.811
	c-0.024-0.023-0.049-0.044-0.074-0.067C335.717,297.741,335.717,287.527,341.994,281.25z"/>
<circle style="fill:#FCC062;" cx="252.001" cy="420.002" r="60"/>
<circle style="fill:#FBB03B;" cx="252.212" cy="432" r="48"/>
<circle style="fill:#F7931E;" cx="251.158" cy="439.995" r="40"/>
<circle style="fill:#F15A24;" cx="251.158" cy="455.995" r="24"/>
<polygon style="fill:#998675;" points="407.953,253.036 407.953,239.965 360.043,239.965 360.043,266.107 383.997,266.107 
	383.997,279.178 431.907,279.178 431.907,253.036 "/>
</svg>